<svg width="185" height="90" viewBox="0 0 185 90" fill="none" xmlns="http://www.w3.org/2000/svg">
<path d="M18.6 14.68C20.1733 14.9733 21.4667 15.76 22.48 17.04C23.4933 18.32 24 19.7867 24 21.44C24 22.9333 23.6267 24.2533 22.88 25.4C22.16 26.52 21.1067 27.4 19.72 28.04C18.3333 28.68 16.6933 29 14.8 29H2.76V1.08H14.28C16.1733 1.08 17.8 1.38667 19.16 2C20.5467 2.61333 21.5867 3.46667 22.28 4.56C23 5.65333 23.36 6.89333 23.36 8.28C23.36 9.90667 22.92 11.2667 22.04 12.36C21.1867 13.4533 20.04 14.2267 18.6 14.68ZM8.36 12.6H13.48C14.8133 12.6 15.84 12.3067 16.56 11.72C17.28 11.1067 17.64 10.24 17.64 9.12C17.64 8 17.28 7.13333 16.56 6.52C15.84 5.90667 14.8133 5.6 13.48 5.6H8.36V12.6ZM14 24.44C15.36 24.44 16.4133 24.12 17.16 23.48C17.9333 22.84 18.32 21.9333 18.32 20.76C18.32 19.56 17.92 18.6267 17.12 17.96C16.32 17.2667 15.24 16.92 13.88 16.92H8.36V24.44H14ZM45.5831 23.68H34.4631L32.6231 29H26.7431L36.7831 1.04H43.3031L53.3431 29H47.4231L45.5831 23.68ZM44.0631 19.2L40.0231 7.52L35.9831 19.2H44.0631ZM66.7359 29.28C64.7893 29.28 63.0293 28.9467 61.4559 28.28C59.9093 27.6133 58.6826 26.6533 57.7759 25.4C56.8693 24.1467 56.4026 22.6667 56.3759 20.96H62.3759C62.4559 22.1067 62.8559 23.0133 63.5759 23.68C64.3226 24.3467 65.3359 24.68 66.6159 24.68C67.9226 24.68 68.9493 24.3733 69.6959 23.76C70.4426 23.12 70.8159 22.2933 70.8159 21.28C70.8159 20.4533 70.5626 19.7733 70.0559 19.24C69.5493 18.7067 68.9093 18.2933 68.1359 18C67.3893 17.68 66.3493 17.3333 65.0159 16.96C63.2026 16.4267 61.7226 15.9067 60.5759 15.4C59.4559 14.8667 58.4826 14.08 57.6559 13.04C56.8559 11.9733 56.4559 10.56 56.4559 8.8C56.4559 7.14667 56.8693 5.70667 57.6959 4.48C58.5226 3.25333 59.6826 2.32 61.1759 1.68C62.6693 1.01333 64.3759 0.68 66.2959 0.68C69.1759 0.68 71.5093 1.38667 73.2959 2.8C75.1093 4.18667 76.1093 6.13333 76.2959 8.64H70.1359C70.0826 7.68 69.6693 6.89333 68.8959 6.28C68.1493 5.64 67.1493 5.32 65.8959 5.32C64.8026 5.32 63.9226 5.6 63.2559 6.16C62.6159 6.72 62.2959 7.53333 62.2959 8.6C62.2959 9.34667 62.5359 9.97333 63.0159 10.48C63.5226 10.96 64.1359 11.36 64.8559 11.68C65.6026 11.9733 66.6426 12.32 67.9759 12.72C69.7893 13.2533 71.2693 13.7867 72.4159 14.32C73.5626 14.8533 74.5493 15.6533 75.3759 16.72C76.2026 17.7867 76.6159 19.1867 76.6159 20.92C76.6159 22.4133 76.2293 23.8 75.4559 25.08C74.6826 26.36 73.5493 27.3867 72.0559 28.16C70.5626 28.9067 68.7893 29.28 66.7359 29.28ZM95.8709 29L89.7109 18.12H87.0709V29H81.4709V1.08H91.9509C94.1109 1.08 95.9509 1.46667 97.4709 2.24C98.9909 2.98667 100.124 4.01333 100.871 5.32C101.644 6.6 102.031 8.04 102.031 9.64C102.031 11.48 101.498 13.1467 100.431 14.64C99.3643 16.1067 97.7776 17.12 95.6709 17.68L102.351 29H95.8709ZM87.0709 13.92H91.7509C93.2709 13.92 94.4043 13.56 95.1509 12.84C95.8976 12.0933 96.2709 11.0667 96.2709 9.76C96.2709 8.48 95.8976 7.49333 95.1509 6.8C94.4043 6.08 93.2709 5.72 91.7509 5.72H87.0709V13.92ZM112.696 5.6V12.6H122.096V17.04H112.696V24.44H123.296V29H107.096V1.04H123.296V5.6H112.696ZM152.265 29H146.665L133.985 9.84V29H128.385V1.04H133.985L146.665 20.24V1.04H152.265V29ZM177.239 9.48C176.599 8.30667 175.719 7.41333 174.599 6.8C173.479 6.18667 172.172 5.88 170.679 5.88C169.026 5.88 167.559 6.25333 166.279 7C164.999 7.74667 163.999 8.81333 163.279 10.2C162.559 11.5867 162.199 13.1867 162.199 15C162.199 16.8667 162.559 18.4933 163.279 19.88C164.026 21.2667 165.052 22.3333 166.359 23.08C167.666 23.8267 169.186 24.2 170.919 24.2C173.052 24.2 174.799 23.64 176.159 22.52C177.519 21.3733 178.412 19.7867 178.839 17.76H169.239V13.48H184.359V18.36C183.986 20.3067 183.186 22.1067 181.959 23.76C180.732 25.4133 179.146 26.7467 177.199 27.76C175.279 28.7467 173.119 29.24 170.719 29.24C168.026 29.24 165.586 28.64 163.399 27.44C161.239 26.2133 159.532 24.52 158.279 22.36C157.052 20.2 156.439 17.7467 156.439 15C156.439 12.2533 157.052 9.8 158.279 7.64C159.532 5.45333 161.239 3.76 163.399 2.56C165.586 1.33333 168.012 0.719999 170.679 0.719999C173.826 0.719999 176.559 1.49333 178.879 3.04C181.199 4.56 182.799 6.70667 183.679 9.48H177.239ZM40.08 61.08L32.28 89H25.68L20.44 69.12L14.96 89L8.4 89.04L0.88 61.08H6.88L11.8 82.76L17.48 61.08H23.72L29.08 82.64L34.04 61.08H40.08ZM58.8678 61.08V89H53.2678V61.08H58.8678ZM89.7719 74.68C91.3452 74.9733 92.6385 75.76 93.6519 77.04C94.6652 78.32 95.1719 79.7867 95.1719 81.44C95.1719 82.9333 94.7985 84.2533 94.0519 85.4C93.3319 86.52 92.2785 87.4 90.8919 88.04C89.5052 88.68 87.8652 89 85.9719 89H73.9319V61.08H85.4519C87.3452 61.08 88.9719 61.3867 90.3319 62C91.7185 62.6133 92.7585 63.4667 93.4519 64.56C94.1719 65.6533 94.5319 66.8933 94.5319 68.28C94.5319 69.9067 94.0919 71.2667 93.2119 72.36C92.3585 73.4533 91.2119 74.2267 89.7719 74.68ZM79.5319 72.6H84.6519C85.9852 72.6 87.0119 72.3067 87.7319 71.72C88.4519 71.1067 88.8119 70.24 88.8119 69.12C88.8119 68 88.4519 67.1333 87.7319 66.52C87.0119 65.9067 85.9852 65.6 84.6519 65.6H79.5319V72.6ZM85.1719 84.44C86.5319 84.44 87.5852 84.12 88.3319 83.48C89.1052 82.84 89.4919 81.9333 89.4919 80.76C89.4919 79.56 89.0919 78.6267 88.2919 77.96C87.4919 77.2667 86.4119 76.92 85.0519 76.92H79.5319V84.44H85.1719ZM114.686 61.08V78.36C114.686 80.2533 115.18 81.7067 116.166 82.72C117.153 83.7067 118.54 84.2 120.326 84.2C122.14 84.2 123.54 83.7067 124.526 82.72C125.513 81.7067 126.006 80.2533 126.006 78.36V61.08H131.646V78.32C131.646 80.6933 131.126 82.7067 130.086 84.36C129.073 85.9867 127.7 87.2133 125.966 88.04C124.26 88.8667 122.353 89.28 120.246 89.28C118.166 89.28 116.273 88.8667 114.566 88.04C112.886 87.2133 111.553 85.9867 110.566 84.36C109.58 82.7067 109.086 80.6933 109.086 78.32V61.08H114.686Z" fill="white"/>
</svg>
